<svg xmlns="http://www.w3.org/2000/svg" viewBox="0 0 24 24" fill="none">
  <defs>
    <linearGradient id="sakuraGrad" x1="0%" y1="0%" x2="100%" y2="100%">
      <stop offset="0%" style="stop-color:#ff9ec4;stop-opacity:1" />
      <stop offset="100%" style="stop-color:#ffc2d6;stop-opacity:1" />
    </linearGradient>
  </defs>
  <!-- Центр цветка -->
  <circle cx="12" cy="12" r="2" fill="#ffb3d1" opacity="0.9"/>
  <!-- 5 лепестков -->
  <path d="M12 2 C10 6, 8 8, 8 10 Q8 12, 12 12 Q16 12, 16 10 C16 8, 14 6, 12 2 Z" 
        fill="url(#sakuraGrad)" opacity="0.85" transform="rotate(0 12 12)"/>
  <path d="M12 2 C10 6, 8 8, 8 10 Q8 12, 12 12 Q16 12, 16 10 C16 8, 14 6, 12 2 Z" 
        fill="url(#sakuraGrad)" opacity="0.85" transform="rotate(72 12 12)"/>
  <path d="M12 2 C10 6, 8 8, 8 10 Q8 12, 12 12 Q16 12, 16 10 C16 8, 14 6, 12 2 Z" 
        fill="url(#sakuraGrad)" opacity="0.85" transform="rotate(144 12 12)"/>
  <path d="M12 2 C10 6, 8 8, 8 10 Q8 12, 12 12 Q16 12, 16 10 C16 8, 14 6, 12 2 Z" 
        fill="url(#sakuraGrad)" opacity="0.85" transform="rotate(216 12 12)"/>
  <path d="M12 2 C10 6, 8 8, 8 10 Q8 12, 12 12 Q16 12, 16 10 C16 8, 14 6, 12 2 Z" 
        fill="url(#sakuraGrad)" opacity="0.85" transform="rotate(288 12 12)"/>
  <!-- Тычинки -->
  <circle cx="12" cy="12" r="1.2" fill="#fff" opacity="0.7"/>
</svg>
