<svg xmlns="http://www.w3.org/2000/svg" viewBox="0 0 64 64"><defs><linearGradient id="g" x1="0" x2="1" y1="0" y2="1"><stop stop-color="#f06b93"/><stop offset="1" stop-color="#ffc107"/></linearGradient></defs><circle cx="32" cy="32" r="30" fill="#0f1115"/><path d="M32 14c4.2 0 7.5 3.3 7.5 7.4 0 5.2-4 8.9-10.8 14.6-.7.6-1.5 1.3-2.3 2H42v4.9H17.6v-4.2c2.4-2.5 4.5-4.5 6.5-6.2 6.5-5.6 9.9-8.4 9.9-11.5 0-1.6-1.2-2.7-2.9-2.7-2 0-3.6 1.2-5 2.9l-4.2-3.5C24.6 16.6 27.8 14 32 14Zm-2.2 30.4c2.3 0 4 1.7 4 3.9 0 2.3-1.7 4-4 4a3.9 3.9 0 0 1-4-4c0-2.2 1.7-3.9 4-3.9Z" fill="url(#g)"/></svg>